<?xml version="1.0" standalone="no"?>
<!DOCTYPE svg PUBLIC "-//W3C//DTD SVG 20010904//EN"
 "http://www.w3.org/TR/2001/REC-SVG-20010904/DTD/svg10.dtd">
<svg version="1.0" xmlns="http://www.w3.org/2000/svg"
 width="584.000000pt" height="584.000000pt" viewBox="0 0 584.000000 584.000000"
 preserveAspectRatio="xMidYMid meet">

<g transform="translate(0.000000,584.000000) scale(0.100000,-0.100000)"
fill="#000000" stroke="none">
<path d="M0 2920 l0 -2920 2920 0 2920 0 0 2920 0 2920 -2920 0 -2920 0 0
-2920z m3198 1818 c-2 -7 5 -12 15 -10 9 2 32 -4 50 -11 17 -8 40 -17 49 -20
18 -6 44 -47 30 -47 -6 0 -12 9 -15 20 -3 11 -10 20 -15 20 -13 0 -21 -45 -11
-62 7 -10 9 -10 10 2 0 8 7 2 14 -15 l14 -30 2 30 c2 30 2 30 6 3 2 -15 -1
-37 -8 -49 -16 -30 -20 -104 -9 -153 5 -24 5 -46 0 -55 -7 -13 -9 -10 -10 11
0 21 -4 25 -20 21 -12 -3 -22 1 -26 11 -10 26 -23 18 -18 -11 3 -21 2 -24 -6
-13 -5 8 -10 10 -10 4 0 -18 12 -24 26 -13 10 8 12 3 7 -26 -4 -26 -2 -40 8
-46 11 -8 10 -12 -6 -24 -11 -8 -26 -19 -33 -25 -7 -6 -18 -9 -25 -7 -7 2 0
10 16 17 15 7 27 18 27 23 0 5 -6 5 -13 -2 -8 -6 -23 -9 -35 -6 -12 2 -24 0
-27 -6 -4 -5 -2 -9 2 -9 5 0 9 -9 10 -19 1 -14 -8 -22 -35 -28 -36 -8 -38 -11
-55 -78 -17 -67 -18 -155 -1 -198 5 -14 2 -16 -12 -11 -17 6 -17 5 -3 -7 27
-24 31 -49 8 -49 -15 0 -19 5 -15 15 3 8 0 15 -6 15 -6 0 -8 11 -4 30 3 19 1
30 -6 30 -15 0 -5 153 11 158 6 2 8 8 5 13 -3 6 5 33 19 62 14 29 33 73 42
100 22 58 32 56 12 -2 -8 -22 -11 -41 -7 -41 5 0 13 14 19 30 6 18 17 30 28
31 10 0 13 3 6 6 -7 2 -13 17 -13 31 0 22 -2 24 -11 12 -8 -12 -9 -10 -5 10 3
14 6 32 7 40 0 8 5 4 9 -10 7 -22 8 -21 9 13 1 20 5 37 9 37 5 0 8 -10 8 -22
-1 -15 6 -23 19 -26 l20 -3 -20 17 c-16 14 -17 16 -2 11 11 -4 17 -1 17 8 0 8
-4 15 -9 15 -4 0 -6 11 -3 25 3 20 9 24 23 20 11 -4 19 -2 19 5 0 6 4 9 9 6
19 -12 20 27 0 53 -11 15 -21 41 -21 58 -1 24 -4 28 -13 20 -7 -7 -10 -17 -8
-24 3 -7 -7 -18 -21 -25 -19 -8 -23 -14 -14 -20 10 -6 10 -8 1 -8 -17 0 -16
-40 1 -59 11 -13 12 -18 1 -28 -10 -9 -16 0 -31 43 -18 54 -36 74 -28 32 4
-21 4 -21 -5 -3 -10 24 -5 35 16 35 9 0 13 3 9 8 -4 4 -17 7 -29 7 -13 0 -23
7 -25 18 -2 10 3 17 12 17 9 0 16 4 16 10 0 5 -6 7 -14 4 -15 -6 -15 0 -1 48
4 16 11 25 16 22 5 -3 17 0 26 5 17 10 16 10 -2 11 l-20 1 20 9 c11 5 21 9 23
9 1 1 1 -5 0 -11z m67 -3 c39 -17 21 -18 -25 0 -19 7 -28 14 -20 14 8 0 29 -6
45 -14z m-540 -222 c39 -19 63 -71 51 -116 -5 -23 -9 -25 -36 -17 -18 5 -30 5
-30 -1 0 -5 6 -9 14 -9 7 0 19 -7 27 -16 11 -14 14 -13 25 8 12 21 13 16 14
-44 0 -44 -4 -68 -12 -72 -10 -5 -10 -7 0 -12 13 -6 18 -174 5 -174 -5 0 -9
-37 -10 -83 -2 -94 -23 -212 -55 -304 -17 -49 -26 -63 -42 -64 -16 -1 -17 -2
-4 -6 23 -6 11 -33 -14 -33 -16 0 -19 5 -14 23 3 12 6 30 6 39 0 9 9 18 22 20
28 4 36 28 9 28 -25 0 -26 15 -10 130 15 120 12 354 -6 440 -9 41 -14 86 -11
100 3 14 2 18 -1 10 -7 -17 -43 100 -39 127 3 18 39 43 63 43 7 0 28 -8 48
-17z m288 -19 c9 -9 -43 -74 -59 -74 -8 0 -14 7 -14 15 0 9 6 12 17 8 12 -5
15 -2 10 10 -4 10 -2 16 6 14 7 -1 11 6 9 16 -3 16 18 24 31 11z m154 -46 c-2
-13 -4 -5 -4 17 -1 22 1 32 4 23 2 -10 2 -28 0 -40z m170 10 c-3 -8 -6 -5 -6
6 -1 11 2 17 5 13 3 -3 4 -12 1 -19z m-453 -63 c-13 -38 -24 -62 -24 -53 0 19
40 131 45 126 2 -2 -7 -34 -21 -73z m-510 -77 c20 -38 33 -68 29 -68 -3 0 3
-10 14 -22 12 -13 37 -57 57 -98 20 -41 49 -97 64 -123 29 -52 24 -67 -25 -67
-13 0 -23 -4 -23 -10 0 -5 -4 -10 -10 -10 -5 0 -10 8 -10 17 0 9 -3 13 -6 10
-10 -10 -96 142 -88 155 4 6 3 8 -3 5 -9 -6 -44 50 -42 67 0 5 -4 12 -9 15 -6
3 -12 13 -14 21 -2 8 -10 22 -19 30 -9 8 -19 25 -23 38 -4 12 -12 22 -18 22
-5 0 -7 7 -4 15 3 9 -1 18 -9 21 -9 4 -15 19 -15 36 0 17 4 27 10 23 6 -3 10
-2 10 3 0 5 17 13 38 18 32 8 38 6 48 -11 6 -11 27 -50 48 -87z m1077 83 c16
-16 29 -35 29 -43 -1 -7 -7 -1 -15 13 -14 26 -47 44 -95 52 -17 3 -13 5 13 6
30 1 45 -5 68 -28z m-1244 -33 c-3 -8 -6 -5 -6 6 -1 11 2 17 5 13 3 -3 4 -12
1 -19z m1106 -50 c-8 -16 -22 -7 -16 9 4 11 3 14 -5 9 -14 -8 -15 -5 -6 19 6
14 8 13 19 -7 6 -13 10 -26 8 -30z m164 -20 c-3 -7 -5 -2 -5 12 0 14 2 19 5
13 2 -7 2 -19 0 -25z m-624 -21 c-3 -20 -10 -37 -15 -37 -5 0 -6 10 -3 23 4
12 9 30 12 40 8 31 13 13 6 -26z m852 -71 c-16 -24 -63 -47 -94 -45 -9 0 2 7
23 15 47 17 76 41 77 63 0 9 3 11 5 4 3 -6 -2 -23 -11 -37z m-871 -29 c-4 -26
-11 -47 -16 -47 -9 0 -5 35 9 83 9 33 13 11 7 -36z m756 -12 c0 -3 -9 -16 -20
-28 l-21 -21 5 24 c2 14 5 26 5 28 2 5 31 2 31 -3z m-773 -107 c-2 -13 -4 -3
-4 22 0 25 2 35 4 23 2 -13 2 -33 0 -45z m566 -48 l13 -75 21 33 c27 44 113
142 125 142 7 0 -24 -52 -42 -70 -3 -3 -13 -22 -24 -42 -10 -20 -27 -46 -37
-57 -11 -11 -19 -25 -19 -31 0 -6 -4 -8 -10 -5 -5 3 -10 -3 -10 -14 0 -14 -6
-21 -20 -21 -18 0 -19 7 -18 123 1 67 3 115 5 107 2 -8 9 -49 16 -90z m-1019
8 c10 -9 15 -21 12 -26 -3 -6 1 -12 9 -16 11 -4 15 -20 13 -63 -1 -41 -2 -47
-5 -21 -3 21 -11 39 -20 42 -12 5 -13 3 -6 -6 13 -17 14 -58 2 -58 -5 0 -9 10
-9 23 0 22 -29 73 -30 52 0 -6 5 -16 12 -23 7 -7 9 -12 6 -12 -4 0 -3 -13 2
-30 5 -19 5 -30 -1 -30 -6 0 -8 -4 -4 -9 3 -5 0 -13 -6 -17 -8 -4 -9 -3 -5 4
4 7 0 12 -11 13 -17 1 -17 2 0 6 9 2 17 9 17 14 0 6 -4 8 -9 5 -4 -3 -16 12
-26 34 -16 35 -22 40 -49 39 -28 -2 -28 -2 -5 -6 18 -3 31 -15 43 -40 15 -31
15 -35 2 -24 -9 8 -16 10 -16 5 0 -4 -5 -3 -12 4 -23 23 -29 12 -9 -14 38 -48
17 -63 -24 -18 -14 15 -25 23 -25 17 0 -5 6 -15 13 -22 10 -10 8 -11 -6 -5
-37 14 -63 114 -29 114 8 0 12 9 10 23 -2 14 2 22 12 22 8 0 21 6 28 13 7 6
20 12 28 12 8 0 14 4 14 9 0 15 64 7 84 -11z m451 -71 c3 -28 1 -47 -5 -47 -6
0 -10 23 -10 52 0 62 9 59 15 -5z m79 -29 c-4 -7 -2 -8 4 -4 6 3 16 -2 21 -13
14 -26 14 -34 -1 -25 -7 5 -8 3 -3 -6 9 -14 -11 -30 -37 -30 -13 0 -18 8 -18
31 0 36 17 72 31 64 5 -4 6 -11 3 -17z m-338 -99 c15 -16 25 -32 21 -35 -8 -8
-65 55 -73 81 -4 11 -12 23 -18 28 -8 5 -7 10 4 16 11 8 17 2 26 -26 7 -19 25
-48 40 -64z m597 11 c17 -28 17 -30 1 -30 -14 0 -64 43 -64 56 0 2 10 4 23 4
15 0 29 -11 40 -30z m195 18 c-2 -7 2 -14 7 -15 6 -2 10 3 10 9 0 7 7 14 16
16 13 2 16 -4 14 -30 -2 -18 -4 -55 -5 -83 -2 -40 -4 -45 -10 -25 l-8 25 -1
-25 c-1 -14 -6 -32 -11 -40 -7 -11 -10 -3 -10 31 0 25 4 49 10 55 6 6 6 15 0
24 -8 12 -11 11 -16 -7 -4 -13 -10 -23 -14 -23 -5 0 -12 -10 -16 -22 -4 -13
-9 -25 -13 -28 -3 -3 -24 -42 -46 -87 -40 -82 -65 -110 -65 -73 0 26 99 221
124 243 10 9 16 20 13 23 -3 4 -2 15 4 25 11 22 21 25 17 7z m-923 -8 c3 -5 0
-10 -7 -11 -7 0 -4 -4 7 -9 21 -8 49 -75 39 -91 -7 -12 37 -59 55 -59 14 0 14
-2 1 -11 -11 -8 -12 -12 -2 -16 6 -2 12 -12 12 -20 0 -9 7 -21 15 -27 9 -7 12
-16 6 -25 -7 -11 -15 -11 -41 -2 -46 16 -55 14 -69 -11 -10 -20 -11 -18 -7 20
2 23 0 42 -6 42 -5 0 -6 -4 -3 -10 3 -5 4 -10 0 -10 -5 0 -50 26 -65 38 -3 2
4 11 15 19 20 15 20 15 -1 11 -26 -6 -47 24 -39 55 5 17 4 19 -4 7 -15 -22
-30 -2 -36 46 -3 25 -2 34 4 25 8 -12 11 -12 25 0 38 35 46 40 46 29 0 -7 7
-4 16 4 18 18 30 20 39 6z m415 -139 c6 -30 17 -63 27 -73 9 -10 14 -20 11
-23 -22 -22 -69 130 -67 213 1 40 1 44 29 -117z m365 89 c1 -23 -2 -30 -17
-30 -19 0 -24 15 -8 25 6 3 10 16 10 27 0 32 13 13 15 -22z m-51 -6 c-11 -5 1
-24 49 -75 9 -10 17 -22 17 -26 -1 -5 -21 -30 -45 -57 -25 -27 -47 -58 -51
-68 -3 -10 -14 -18 -27 -17 -21 0 -21 1 -2 9 27 13 -43 2 -104 -16 -39 -12
-40 -13 -11 -10 19 3 49 7 65 10 l30 6 -30 -14 c-20 -9 -60 -14 -115 -13 -79
2 -85 3 -82 22 6 34 23 48 36 29 11 -14 20 -14 101 6 98 23 118 34 129 68 4
12 15 22 24 22 13 0 11 4 -6 16 -27 19 -44 57 -35 80 6 15 37 33 58 33 6 -1 5
-3 -1 -5z m-554 -24 c0 -5 -7 -7 -15 -4 -8 4 -15 8 -15 10 0 2 7 4 15 4 8 0
15 -4 15 -10z m38 -32 c7 -7 12 -21 12 -32 0 -18 -1 -18 -25 4 -13 12 -22 27
-19 31 7 12 18 11 32 -3z m749 -70 c-3 -8 -6 -5 -6 6 -1 11 2 17 5 13 3 -3 4
-12 1 -19z m-24 -98 c3 8 8 29 10 45 3 23 4 19 6 -13 1 -46 -14 -86 -30 -77
-5 4 -8 32 -7 63 l1 57 7 -45 c4 -27 9 -39 13 -30z m-633 4 c0 -25 -4 -43 -9
-40 -10 7 -20 66 -14 83 10 26 23 0 23 -43z m217 50 c-3 -3 -12 -4 -19 -1 -8
3 -5 6 6 6 11 1 17 -2 13 -5z m-1397 -196 c0 -9 4 -8 10 2 8 13 10 12 10 -2 0
-22 7 -23 26 -3 12 11 29 13 77 8 64 -6 81 -14 97 -43 12 -23 1 -62 -16 -56
-8 3 -14 -1 -14 -9 0 -8 -12 -18 -27 -22 l-28 -7 35 -9 c71 -18 90 -63 46
-114 -24 -27 -26 -28 -143 -30 -65 -1 -110 0 -100 3 13 4 17 17 17 61 0 46 3
54 16 49 11 -4 14 -1 12 12 -2 9 -10 16 -16 15 -8 -2 -12 18 -12 67 0 56 -3
70 -15 70 -8 0 -15 5 -15 10 0 6 9 10 20 10 11 0 20 -6 20 -12z m440 -14 c6
-14 8 -30 4 -35 -3 -5 -1 -9 4 -9 7 0 39 -74 82 -194 7 -19 15 -26 25 -22 8 3
15 1 15 -4 0 -6 -33 -10 -76 -10 -45 0 -73 4 -69 10 3 5 12 7 20 4 11 -5 12 0
5 27 -5 17 -8 35 -6 38 2 3 -20 4 -50 1 -50 -5 -56 -8 -72 -40 -16 -33 -52
-54 -52 -30 0 6 4 9 10 5 14 -9 33 27 85 163 26 67 51 122 56 122 5 0 14 -12
19 -26z m391 0 c10 -9 19 -29 19 -44 0 -30 -21 -53 -65 -68 -25 -9 -26 -11 -8
-11 36 -1 63 -39 63 -88 0 -36 3 -43 20 -43 11 0 20 -4 20 -10 0 -16 -86 -12
-100 5 -7 8 -15 36 -18 63 -6 56 -16 72 -48 72 -23 0 -24 -3 -24 -65 0 -62 4
-71 33 -66 4 0 7 -4 7 -9 0 -6 -30 -10 -72 -9 -40 1 -65 3 -55 6 15 4 17 19
17 139 0 127 -1 134 -20 134 -11 0 -20 5 -20 10 0 7 41 9 116 6 91 -4 120 -8
135 -22z m149 16 c0 -5 7 -10 15 -10 8 0 15 4 15 10 0 5 15 8 33 6 17 -3 42
-5 55 -5 12 -1 21 -4 21 -8 -3 -20 2 -27 10 -14 8 12 12 12 24 3 8 -7 17 -21
19 -30 7 -25 -10 -65 -25 -60 -6 3 -19 -3 -28 -13 -16 -16 -15 -17 12 -23 39
-7 64 -47 52 -83 -15 -47 -63 -63 -178 -62 -55 1 -92 3 -82 6 9 2 17 8 18 11
0 4 1 64 2 135 2 117 1 127 -16 127 -10 0 -15 5 -12 10 3 6 19 10 36 10 16 0
29 -4 29 -10z m497 -34 l2 -41 -25 33 c-22 27 -32 32 -70 32 l-44 0 0 -61 c0
-57 1 -60 23 -57 12 2 26 13 32 26 14 32 20 27 22 -19 2 -37 1 -41 -17 -35
-65 20 -60 24 -60 -47 0 -73 5 -78 68 -70 36 5 44 11 62 47 l20 41 0 -52 0
-53 -132 1 c-103 0 -128 3 -110 11 21 10 22 18 23 112 1 56 0 109 -1 120 -1
10 4 23 12 27 9 6 4 9 -14 9 -16 0 -28 4 -28 10 0 5 49 9 118 8 l118 0 1 -42z
m228 -25 c13 -35 21 -70 18 -78 -3 -8 4 -23 15 -33 11 -10 28 -39 37 -64 10
-25 25 -47 34 -49 9 -3 -20 -5 -64 -5 -44 0 -72 2 -61 5 14 4 17 11 12 36 -8
38 -8 39 -53 47 l-38 8 37 1 37 1 -17 45 c-9 25 -19 45 -23 45 -3 0 -14 -21
-23 -47 -10 -27 -24 -63 -32 -82 -8 -18 -14 -35 -12 -36 2 -1 12 -7 23 -13 17
-10 12 -11 -29 -12 l-49 0 24 23 c14 12 33 45 43 72 62 167 79 206 88 203 6
-2 21 -32 33 -67z m233 2 c3 -62 3 -63 32 -63 17 0 30 -4 30 -10 0 -5 10 -10
23 -10 42 0 67 -35 67 -94 0 -30 4 -36 21 -36 11 0 17 -4 14 -10 -3 -5 -24
-10 -45 -10 -46 0 -70 26 -70 78 0 46 -16 72 -45 72 -22 0 -24 -4 -27 -70 -3
-67 -2 -69 22 -73 14 -2 -11 -5 -55 -5 l-80 -2 34 17 c19 9 29 19 23 21 -8 2
-12 42 -12 123 0 99 -3 119 -15 119 -8 0 -15 5 -15 11 0 6 19 9 48 7 l47 -3 3
-62z m362 55 c0 -4 -7 -8 -15 -8 -13 0 -15 -21 -15 -133 l0 -133 26 -2 c42 -3
60 14 84 78 12 33 26 63 31 66 5 3 4 -7 -1 -21 -14 -36 -14 -35 25 -35 28 0
35 4 35 20 0 20 24 37 50 36 9 -1 25 -28 40 -68 15 -40 33 -71 45 -77 15 -7
-1 -9 -60 -9 -44 0 -70 3 -57 5 26 5 26 9 10 46 -12 24 -19 27 -61 27 -42 0
-49 -3 -58 -27 -10 -26 4 -49 23 -37 4 3 8 0 8 -5 0 -7 -45 -11 -132 -10 -73
1 -123 4 -110 6 22 4 22 7 22 139 0 129 -1 134 -21 134 -11 0 -17 4 -14 10 7
12 145 10 145 -2z m191 -23 c5 -16 4 -36 -3 -48 -9 -17 -8 -19 6 -14 21 8 20
1 -4 -23 -21 -21 -35 -27 -26 -11 3 5 -2 12 -11 16 -10 3 -19 1 -21 -4 -2 -6
-8 -11 -13 -11 -5 0 0 21 10 48 10 26 21 55 24 65 10 26 29 16 38 -18z m-403
3 c7 -7 12 -23 12 -36 0 -31 -38 -66 -55 -52 -6 5 -15 7 -18 4 -3 -3 -6 17 -5
45 0 49 1 51 27 51 15 0 32 -5 39 -12z m-2208 -123 c0 -12 -14 -15 -70 -15
-56 0 -70 3 -70 15 0 12 14 15 70 15 56 0 70 -3 70 -15z m2890 0 c0 -12 -14
-15 -70 -15 -56 0 -70 3 -70 15 0 12 14 15 70 15 56 0 70 -3 70 -15z m-1350
-45 c0 -5 -2 -10 -4 -10 -3 0 -8 5 -11 10 -3 6 -1 10 4 10 6 0 11 -4 11 -10z
m-1063 -96 c-3 -3 -12 -4 -19 -1 -8 3 -5 6 6 6 11 1 17 -2 13 -5z m2923 -80
c12 -57 6 -83 -11 -51 -49 87 -171 99 -220 21 -17 -28 -19 -38 -9 -44 7 -4 9
-13 6 -19 -5 -7 2 -11 18 -11 18 0 26 -5 26 -17 0 -13 3 -14 8 -6 6 9 29 11
77 9 75 -5 119 -18 147 -43 22 -20 23 -34 3 -27 -8 4 -15 2 -15 -4 0 -5 11
-13 24 -16 23 -6 42 -33 31 -44 -3 -4 -19 -1 -36 5 -20 8 -39 9 -55 2 -42 -15
-141 -11 -148 6 -3 8 -11 15 -18 15 -9 0 -8 -3 2 -10 13 -8 12 -10 -3 -10 -23
0 -57 18 -57 29 0 5 9 7 20 4 21 -6 28 11 8 23 -6 4 -8 3 -5 -3 4 -7 -3 -10
-20 -9 -20 1 -30 9 -41 36 -43 104 44 217 157 204 18 -2 36 -6 40 -9 5 -2 17
2 27 10 29 22 32 19 44 -41z m-3935 35 c4 -6 14 -8 22 -5 23 9 182 -23 225
-45 20 -10 44 -29 52 -41 18 -25 22 -98 5 -98 -5 0 -8 -4 -5 -9 9 -13 -75 -51
-115 -52 -28 0 -30 -2 -14 -9 20 -8 20 -9 -1 -9 -11 -1 -24 2 -28 6 -4 4 -29
9 -56 11 -40 3 -50 0 -50 -12 0 -9 -4 -16 -9 -16 -4 0 -6 -10 -4 -23 3 -13 0
-39 -5 -58 -6 -18 -11 -26 -11 -16 -1 19 -16 23 -26 6 -4 -5 0 -18 9 -28 9
-10 16 -30 16 -44 0 -26 1 -27 65 -27 62 0 65 1 81 32 9 18 17 58 18 95 1 73
16 86 66 57 50 -30 81 -127 44 -141 -8 -3 -13 -11 -10 -19 7 -18 -13 -32 -70
-49 -46 -14 -59 -13 -199 11 -176 30 -178 31 -170 44 3 6 15 6 29 0 21 -8 24
-5 29 23 4 18 20 111 37 207 16 96 32 181 35 188 2 6 0 12 -5 12 -6 0 -10 5
-10 10 0 13 47 13 55 -1z m3582 -72 c24 -23 28 -89 8 -131 -10 -20 -23 -36
-31 -36 -11 0 -11 6 3 34 10 22 13 44 9 61 l-7 28 -23 -22 c-27 -25 -49 -27
-70 -5 -21 20 -20 49 2 74 20 23 85 21 109 -3z m-2975 -23 c135 -16 156 -23
192 -59 32 -32 33 -39 4 -32 l-23 6 24 -18 c35 -26 22 -71 -28 -99 -41 -23
-95 -29 -106 -12 -3 6 -1 10 4 10 6 0 14 18 17 40 4 22 10 38 13 35 4 -2 4 18
1 45 -4 32 -2 51 4 54 6 2 0 3 -14 3 -14 0 -46 4 -71 8 l-46 7 -8 -53 c-5 -30
-9 -60 -9 -67 -1 -7 -8 -17 -16 -22 -10 -7 -11 -10 -2 -10 6 0 12 -8 12 -19 0
-20 25 -31 73 -31 15 0 27 -4 27 -8 0 -5 17 -17 39 -26 62 -28 81 -63 81 -145
0 -86 5 -101 39 -102 26 -1 26 -1 -4 -10 -38 -12 -98 -2 -123 19 -33 30 -42
59 -42 140 0 88 -10 104 -66 115 l-31 6 -11 -102 c-16 -133 -17 -127 18 -127
17 0 30 -4 30 -10 0 -13 -30 -13 -146 2 -89 11 -129 28 -64 28 17 0 30 3 30 8
0 4 7 51 15 106 11 70 20 103 32 112 16 12 17 13 1 14 -14 0 -16 8 -11 58 3
31 9 74 13 94 9 42 6 48 -27 48 -12 0 -23 5 -23 11 0 8 14 9 43 5 23 -4 95
-14 159 -22z m2696 -13 c2 -5 11 -7 20 -4 30 7 62 -33 62 -77 0 -37 -2 -40
-27 -39 -25 0 -26 1 -8 9 17 7 16 9 -9 9 -16 1 -27 -2 -23 -5 3 -3 2 -17 -3
-30 -6 -14 -6 -26 0 -29 6 -4 10 1 10 9 0 10 9 16 23 16 l22 0 -25 -20 c-14
-11 -41 -25 -60 -31 -65 -20 -67 -21 -40 -29 14 -5 42 -8 62 -9 55 -2 75 -34
103 -165 5 -25 10 -28 35 -24 41 6 38 -10 -5 -28 -40 -16 -79 -19 -70 -4 4 6
-6 10 -22 10 -37 0 -49 9 -63 45 -8 21 -8 31 -1 33 6 2 11 8 11 14 0 6 -6 8
-14 5 -10 -4 -16 6 -21 39 -7 48 -24 71 -61 80 -50 13 -57 1 -49 -82 5 -59 4
-79 -7 -85 -10 -7 -9 -9 5 -9 11 0 17 -8 17 -25 0 -22 4 -25 36 -25 54 0 32
-16 -30 -23 -68 -7 -126 7 -127 31 0 9 -8 89 -18 177 -10 88 -16 163 -14 168
2 4 16 4 31 1 16 -4 23 -3 19 2 -5 5 -13 9 -18 9 -12 0 -12 5 -1 36 9 22 15
25 41 21 20 -3 31 -10 31 -21 0 -13 -2 -14 -9 -2 -8 12 -11 12 -25 -1 -18 -18
-11 -28 20 -28 21 0 23 -6 30 -71 4 -39 10 -65 14 -58 5 6 15 9 25 6 25 -10
82 18 90 45 5 12 17 31 27 40 19 16 19 17 -4 20 -15 2 -23 10 -24 23 -1 11 -5
30 -9 42 -4 12 -6 25 -5 29 1 4 -4 11 -12 16 -8 6 0 8 27 4 22 -3 41 -10 43
-15z m-103 -6 c-23 -8 -85 -10 -85 -3 0 4 21 8 48 7 26 0 43 -2 37 -4z m-205
-15 c0 -5 -9 -10 -19 -10 -11 0 -23 5 -26 10 -4 6 5 10 19 10 14 0 26 -4 26
-10z m-112 -30 c0 -16 -4 -30 -9 -30 -5 0 -9 5 -9 10 0 6 -4 10 -10 10 -5 0
-10 -8 -10 -17 0 -11 -3 -14 -8 -7 -15 23 -53 34 -116 34 -63 0 -65 -1 -71
-29 -3 -17 -2 -39 4 -50 6 -11 11 -45 11 -76 0 -48 3 -56 16 -51 9 3 29 6 45
6 21 0 27 4 23 15 -4 9 0 15 8 15 10 0 13 10 12 30 -2 33 10 40 20 13 10 -24
5 -183 -5 -183 -4 0 -11 20 -14 44 -8 50 -21 57 -72 41 l-32 -10 6 -89 c5 -69
3 -87 -6 -82 -9 6 -9 3 1 -13 11 -18 23 -21 79 -21 62 0 68 2 102 35 19 19 38
48 42 65 4 16 13 30 21 30 17 0 19 -20 2 -21 -10 0 -10 -2 0 -6 8 -3 12 -26
12 -64 0 -54 2 -59 23 -60 21 0 21 -1 2 -9 -18 -8 -17 -9 6 -9 21 -1 28 -7 32
-28 3 -16 0 -31 -6 -35 -8 -5 -5 -8 7 -8 16 0 17 -5 11 -37 -8 -47 -11 -49
-30 -33 -10 8 -15 9 -15 1 0 -6 -7 -11 -15 -11 -8 0 -15 5 -15 11 0 5 5 7 12
3 6 -4 9 -3 5 2 -3 5 -2 29 3 54 6 33 5 47 -5 55 -7 5 -15 19 -17 30 -3 19
-10 20 -133 18 -72 -1 -130 -3 -130 -4 0 -1 -35 -3 -77 -5 -47 -2 -78 0 -78 6
0 6 13 10 29 10 28 0 29 2 24 35 -4 26 -2 35 8 35 10 0 11 2 2 8 -7 4 -14 52
-18 122 -3 63 -8 126 -11 138 -3 13 1 31 7 39 10 11 10 16 0 22 -7 5 -12 11
-12 15 3 21 -2 26 -24 26 -14 0 -25 5 -25 10 0 10 48 13 225 11 55 0 107 4
115 9 8 5 24 10 36 10 16 0 21 -6 22 -30z m-1661 9 c16 -7 23 -13 15 -16 -7
-3 -20 -2 -30 2 -33 13 -107 10 -123 -5 -34 -31 -41 -64 -46 -215 -7 -175 0
-207 49 -224 114 -40 163 23 160 208 l-1 64 62 -8 c34 -3 63 -8 65 -9 1 -2 5
-25 7 -52 4 -38 1 -56 -15 -81 -11 -18 -24 -33 -30 -33 -5 0 -7 -6 -4 -13 3
-8 -2 -20 -11 -27 -8 -7 -15 -9 -15 -4 -1 5 -7 -2 -15 -16 -8 -14 -14 -19 -15
-12 0 6 -5 12 -12 12 -6 0 -8 -3 -5 -7 13 -12 -15 -33 -44 -33 -16 0 -29 -5
-29 -11 0 -13 -83 -5 -139 14 -21 8 -43 11 -48 8 -22 -16 -43 -64 -43 -100 0
-24 -7 -46 -17 -56 -15 -16 -17 -15 -31 19 -8 21 -11 47 -7 63 7 30 69 93 91
93 9 0 0 13 -20 30 -49 44 -76 104 -76 173 l0 56 47 3 c31 2 48 8 50 18 3 9 1
11 -4 5 -10 -12 -83 -15 -83 -3 0 5 13 28 29 52 34 49 97 96 130 96 12 0 19 4
16 10 -9 14 106 13 142 -1z m1218 -9 c4 -6 -7 -10 -24 -10 l-31 0 -2 -105 c-2
-145 -1 -139 -18 -147 -13 -6 -12 -7 1 -7 22 -1 29 -22 29 -82 0 -39 -3 -49
-17 -49 -15 0 -14 -2 3 -15 18 -14 17 -14 -13 -15 -37 0 -46 -18 -10 -18 35
-1 87 -14 87 -21 0 -9 -126 -5 -140 4 -6 3 -10 1 -10 -4 0 -6 -8 -11 -17 -10
-10 0 -13 2 -8 5 10 4 10 50 1 144 -3 25 -5 54 -5 65 -1 19 -7 20 -81 17 l-80
-4 0 -34 c0 -24 -5 -34 -15 -34 -17 0 -20 -17 -4 -22 15 -5 0 -36 -19 -41 -12
-3 -9 -6 11 -11 29 -9 37 -26 12 -26 -8 0 -15 -4 -15 -10 0 -5 7 -10 15 -10 8
0 15 -4 15 -9 0 -5 15 -13 33 -17 l32 -8 -30 -7 c-48 -11 -205 -10 -205 1 0 6
11 10 25 10 21 0 25 5 25 30 0 24 4 30 23 31 l22 2 -22 4 c-23 4 -23 7 -23
147 0 79 -3 164 -6 190 -7 45 -8 47 -35 41 -18 -4 -29 -2 -29 4 0 7 28 11 74
11 40 0 94 3 120 6 31 5 46 3 46 -5 0 -6 -13 -11 -30 -11 -29 0 -30 -1 -30
-51 0 -45 -2 -50 -15 -39 -20 17 -19 7 5 -32 24 -40 25 -48 5 -48 -8 0 -15 -4
-15 -9 0 -11 25 -21 56 -21 13 0 24 -4 24 -10 0 -5 5 -10 11 -10 5 0 7 5 3 11
-4 7 5 10 27 8 63 -4 69 -1 69 32 0 16 4 28 9 24 5 -3 12 -1 15 4 3 5 -1 11
-9 15 -19 7 -21 76 -2 77 10 0 10 2 0 6 -7 2 -13 13 -13 24 0 14 -7 19 -30 19
-16 0 -30 4 -30 10 0 5 42 11 93 13 50 1 102 4 114 5 12 1 25 -2 28 -8z m-844
-17 c6 -6 -4 -10 -26 -11 -49 -2 -80 -28 -100 -84 -9 -27 -20 -46 -25 -43 -7
4 -4 88 6 134 5 23 8 23 70 18 36 -2 70 -9 75 -14z m-1803 -5 c16 -16 15 -53
-2 -67 -21 -18 -66 -9 -82 14 -12 18 -11 24 2 43 17 24 62 30 82 10z m2100
-71 c0 -77 -1 -80 -14 -52 -16 36 -17 55 -4 55 6 0 10 5 10 11 0 6 -5 9 -12 7
-7 -3 -28 6 -47 19 -18 13 -47 23 -62 23 -28 0 -34 -8 -29 -39 4 -34 -12 -81
-28 -82 -11 -1 -8 -4 8 -9 37 -11 4 -22 -56 -18 l-49 3 2 40 c2 22 3 57 4 77
1 28 5 35 17 30 8 -3 13 -1 10 4 -4 5 47 10 123 11 l128 2 -1 -82z m2280 71
c7 -7 12 -21 12 -33 0 -28 -19 -45 -49 -45 -48 0 -69 34 -45 69 17 23 63 28
82 9z m-2855 -38 c15 -16 27 -34 27 -40 0 -5 4 -10 9 -10 8 0 35 -61 29 -65
-2 0 -32 1 -68 3 -46 3 -59 7 -45 13 18 7 18 8 2 8 -13 1 -17 6 -12 20 3 11 2
22 -4 25 -5 3 -8 17 -6 31 1 14 -2 25 -6 25 -5 0 -9 5 -9 10 0 23 57 9 83 -20z
m1575 -15 c0 -26 -12 -33 -23 -15 -8 13 1 40 13 40 5 0 10 -11 10 -25z m647
-34 c-3 -6 -11 -11 -17 -11 -6 0 -6 6 2 15 14 17 26 13 15 -4z m481 -77 c7
-28 -30 -89 -70 -114 -43 -26 -116 -36 -146 -20 -21 11 -26 10 -38 -9 -29 -42
-41 -28 -58 63 -3 16 -7 33 -9 37 -3 4 1 9 8 12 19 7 43 -33 27 -43 -9 -5 -9
-9 -1 -14 6 -4 11 -2 11 4 0 7 12 4 30 -7 17 -9 30 -21 30 -25 0 -11 58 -10
102 2 66 19 92 76 64 142 -7 15 -5 16 18 5 15 -7 29 -21 32 -33z m-729 20 c-3
-3 -12 -4 -19 -1 -8 3 -5 6 6 6 11 1 17 -2 13 -5z m-1563 -111 c-5 -49 -8 -98
-7 -110 1 -33 -12 -28 -36 12 -11 19 -15 35 -9 35 7 0 6 5 -2 15 -7 8 -16 13
-20 10 -5 -3 -11 -1 -15 5 -3 5 1 10 9 10 13 0 14 3 4 19 -7 11 -16 17 -20 15
-4 -3 -8 7 -9 23 l-1 28 -8 -25 c-7 -23 -8 -23 -9 -3 -1 12 4 25 10 29 8 4 7
9 -2 15 -9 5 12 9 54 9 l68 0 -7 -87z m-82 -89 c23 -46 48 -74 34 -38 -7 18
-6 18 11 1 16 -15 16 -19 3 -27 -13 -9 -13 -10 0 -10 8 -1 4 -6 -9 -11 -14 -5
-32 -8 -40 -7 -9 1 -22 -1 -28 -5 -10 -6 -13 11 -13 73 0 90 7 94 42 24z
m1418 -64 c0 -5 -16 -10 -35 -10 -19 0 -35 5 -35 10 0 6 16 10 35 10 19 0 35
-4 35 -10z m-1340 -45 c0 -9 -9 -15 -25 -15 -14 0 -25 4 -25 10 0 5 7 7 15 4
8 -4 15 -1 15 5 0 6 5 11 10 11 6 0 10 -7 10 -15z m-150 -5 c0 -5 -7 -10 -15
-10 -8 0 -15 5 -15 10 0 6 7 10 15 10 8 0 15 -4 15 -10z m210 0 c0 -5 -9 -10
-19 -10 -11 0 -23 5 -26 10 -4 6 5 10 19 10 14 0 26 -4 26 -10z m1250 -106 c0
-19 -4 -34 -10 -34 -5 0 -10 18 -10 41 0 24 4 38 10 34 6 -3 10 -22 10 -41z
m-2154 17 c-3 -4 1 -32 8 -62 8 -30 17 -69 20 -88 l6 -34 -29 34 c-20 22 -26
36 -19 41 8 4 8 11 -3 24 -8 9 -13 27 -11 38 6 48 13 66 22 61 6 -4 8 -10 6
-14z m642 -25 c36 -9 67 -11 99 -5 25 5 49 7 51 4 3 -3 -9 -8 -26 -11 -18 -4
-32 -13 -32 -20 0 -8 7 -11 18 -8 9 3 -8 -17 -38 -46 -40 -37 -61 -50 -78 -47
-18 3 -20 2 -11 -9 8 -9 16 -11 29 -4 9 5 20 7 24 5 3 -3 4 -2 2 1 -3 3 21 26
52 52 31 25 60 50 63 55 7 10 95 4 106 -7 8 -7 -31 -37 -62 -48 -12 -5 -6 -6
15 -3 18 3 37 10 41 17 4 6 14 8 23 5 9 -4 16 -2 16 3 0 6 -5 10 -12 10 -6 0
-8 3 -4 7 10 11 106 12 106 1 0 -4 -6 -8 -12 -9 -10 0 -10 -2 -1 -5 6 -3 23 2
37 11 24 16 26 16 58 -17 20 -19 34 -44 34 -60 2 -38 -22 -36 -44 2 -9 16 -20
30 -24 30 -5 0 -8 7 -8 16 0 8 -5 12 -11 9 -6 -4 -8 -13 -5 -21 6 -15 -13 -54
-26 -54 -5 0 -9 8 -9 18 -1 16 -2 16 -6 0 -2 -10 -10 -18 -16 -19 -7 0 -4 -4
6 -8 16 -6 14 -10 -17 -39 -32 -29 -36 -30 -45 -14 -10 16 -10 15 -11 -3 0
-11 -4 -26 -9 -34 -8 -13 -12 -13 -27 0 -15 12 -16 12 -11 -6 7 -24 -33 -52
-167 -116 -84 -40 -89 -42 -102 -25 -15 21 -49 14 -41 -9 8 -19 -57 -28 -149
-22 -104 8 -145 18 -152 36 -3 9 -10 19 -15 22 -5 4 4 19 19 34 l28 28 -24 -7
c-14 -5 -52 -10 -85 -13 l-60 -4 -53 51 c-36 33 -52 56 -48 66 3 9 6 18 6 20
0 2 18 -5 40 -16 48 -25 77 -27 34 -2 -61 35 -65 38 -58 55 3 9 13 17 22 17
12 0 13 3 5 11 -8 8 -6 22 5 49 l15 39 20 -26 c29 -37 93 -63 155 -63 41 0 70
8 124 35 39 19 75 32 80 29 5 -3 7 -1 6 4 -2 5 13 26 32 45 25 26 41 35 55 31
11 -3 44 -11 73 -18z m579 1 c-7 -19 52 -39 91 -31 33 7 41 -3 20 -24 -7 -7
-8 -12 -4 -12 5 0 17 10 28 22 14 17 33 23 78 26 57 4 59 3 66 -22 8 -32 24
-34 25 -3 0 12 3 16 6 10 2 -7 17 -12 31 -12 17 1 21 3 10 6 -20 5 -20 5 -12
27 8 20 38 21 54 1 14 -16 0 -21 -16 -5 -5 5 -15 6 -23 0 -11 -6 -5 -10 22
-15 23 -5 39 -14 42 -26 6 -19 25 -27 25 -10 0 5 11 4 25 -2 31 -15 33 -30 3
-22 -20 5 -21 4 -5 -5 9 -6 17 -21 18 -33 1 -21 1 -21 8 2 4 14 13 27 20 29
10 3 12 0 8 -11 -3 -9 1 -18 9 -21 10 -4 12 -2 8 6 -5 7 1 9 17 5 65 -15 98
-17 139 -8 36 8 50 7 67 -4 12 -8 31 -15 43 -15 11 0 20 -4 20 -10 0 -5 -5
-10 -11 -10 -5 0 -7 -4 -4 -10 3 -5 0 -10 -7 -11 -10 0 -10 -2 0 -6 16 -6 16
-23 -1 -23 -7 0 -22 -7 -33 -16 -18 -14 -18 -15 4 -4 13 6 30 9 37 6 7 -2 21
4 30 14 9 10 24 16 32 13 12 -5 12 -7 1 -14 -7 -5 -8 -9 -3 -9 6 0 -1 -7 -15
-15 -14 -8 -19 -14 -12 -15 7 0 10 -5 7 -10 -4 -6 -11 -7 -17 -4 -6 4 -8 3 -5
-3 8 -13 -40 -56 -53 -48 -6 4 -10 2 -10 -3 0 -6 -11 -9 -24 -8 -18 1 -22 4
-14 14 6 6 7 13 2 13 -5 1 5 5 21 9 26 6 23 7 -19 7 -46 0 -48 0 -25 -13 13
-7 18 -13 12 -14 -20 0 -15 -20 7 -28 17 -6 12 -12 -36 -36 -46 -23 -58 -26
-65 -15 -6 10 -9 11 -9 2 0 -7 -9 -13 -20 -13 -11 0 -20 -4 -20 -10 0 -6 -40
-10 -101 -10 -85 0 -104 3 -116 18 -8 9 -12 11 -8 5 7 -15 -8 -17 -33 -4 -9 5
-37 15 -62 21 -25 7 -57 21 -71 31 -14 10 -29 16 -32 12 -9 -9 -38 18 -31 29
3 5 12 4 20 -3 20 -16 18 -6 -3 17 -10 10 -27 21 -38 22 -16 3 -18 1 -7 -9 45
-47 -43 -7 -103 47 -20 18 -34 37 -31 43 4 5 -2 16 -11 23 -20 15 -31 64 -11
52 12 -8 7 4 -25 49 -10 16 -16 31 -13 35 4 3 11 0 16 -8 12 -19 43 -23 36 -4
-4 9 2 14 17 14 15 0 35 -16 61 -49 28 -35 44 -47 57 -44 10 3 16 9 14 14 -3
4 -12 6 -19 3 -16 -6 -100 101 -91 116 9 15 18 12 12 -3z m315 -9 c-7 -7 -12
-8 -12 -2 0 14 12 26 19 19 2 -3 -1 -11 -7 -17z m-1488 -43 c-4 -8 -10 -15
-15 -15 -5 0 -9 7 -9 15 0 8 7 15 15 15 9 0 12 -6 9 -15z m16 -29 c0 -3 -4 -8
-10 -11 -5 -3 -10 -1 -10 4 0 6 5 11 10 11 6 0 10 -2 10 -4z m1965 -17 c-4 -5
4 -13 17 -18 22 -9 21 -10 -8 -10 -17 -1 -37 6 -44 14 -10 12 -10 15 4 15 9 0
16 5 16 11 0 5 5 7 10 4 6 -4 8 -11 5 -16z m-2029 -56 c-7 -7 -26 7 -26 19 0
6 6 6 15 -2 9 -7 13 -15 11 -17z m2089 -13 c-27 -12 -43 -12 -25 0 8 5 22 9
30 9 10 0 8 -3 -5 -9z m-2065 -16 c0 -8 -5 -12 -10 -9 -6 4 -8 11 -5 16 9 14
15 11 15 -7z m2110 12 c0 -2 -7 -7 -16 -10 -8 -3 -12 -2 -9 4 6 10 25 14 25 6z
m-1890 -171 c0 -3 -12 -10 -27 -16 -21 -8 -30 -6 -42 6 -14 13 -11 15 27 15
23 0 42 -2 42 -5z"/>
<path d="M3320 4571 c0 -8 -7 -11 -17 -6 -15 5 -16 4 -5 -6 9 -10 15 -10 24
-1 6 6 9 15 5 19 -4 3 -7 1 -7 -6z"/>
<path d="M3280 4414 c0 -8 5 -12 10 -9 6 3 10 10 10 16 0 5 -4 9 -10 9 -5 0
-10 -7 -10 -16z"/>
<path d="M3148 4233 c6 -2 18 -2 25 0 6 3 1 5 -13 5 -14 0 -19 -2 -12 -5z"/>
<path d="M2658 4493 c7 -3 16 -2 19 1 4 3 -2 6 -13 5 -11 0 -14 -3 -6 -6z"/>
<path d="M2636 4477 c3 -10 9 -15 12 -12 3 3 0 11 -7 18 -10 9 -11 8 -5 -6z"/>
<path d="M2673 4456 c-36 -17 -28 -33 15 -30 20 2 48 3 62 4 18 0 21 3 12 9
-8 4 -27 7 -42 5 -22 -3 -28 0 -24 11 7 17 7 17 -23 1z"/>
<path d="M2667 4389 c7 -7 15 -10 18 -7 3 3 -2 9 -12 12 -14 6 -15 5 -6 -5z"/>
<path d="M2710 4326 c0 -10 28 -13 41 -5 10 6 7 9 -13 9 -16 0 -28 -2 -28 -4z"/>
<path d="M2757 4299 c7 -7 15 -10 18 -7 3 3 -2 9 -12 12 -14 6 -15 5 -6 -5z"/>
<path d="M2730 4110 l-35 -7 43 -2 c27 0 41 3 37 9 -3 6 -7 9 -8 9 -1 -1 -18
-5 -37 -9z"/>
<path d="M2701 4079 c-1 -11 7 -16 25 -16 17 0 22 2 13 8 -7 4 -16 6 -20 3 -4
-2 -10 2 -12 8 -4 9 -6 7 -6 -3z"/>
<path d="M2720 4015 c0 -8 4 -15 10 -15 5 0 7 7 4 15 -4 8 -8 15 -10 15 -2 0
-4 -7 -4 -15z"/>
<path d="M2755 4010 c-3 -5 -1 -10 4 -10 6 0 11 5 11 10 0 6 -2 10 -4 10 -3 0
-8 -4 -11 -10z"/>
<path d="M2710 3900 c-13 -8 -12 -10 3 -10 9 0 17 5 17 10 0 12 -1 12 -20 0z"/>
<path d="M2260 4360 c-9 -6 -10 -10 -3 -10 6 0 15 5 18 10 8 12 4 12 -15 0z"/>
<path d="M2375 4260 c3 -5 8 -10 11 -10 2 0 4 5 4 10 0 6 -5 10 -11 10 -5 0
-7 -4 -4 -10z"/>
<path d="M2326 4221 c-4 -5 3 -7 14 -4 23 6 26 13 6 13 -8 0 -17 -4 -20 -9z"/>
<path d="M2381 4191 c-9 -6 -5 -8 13 -8 15 0 29 3 32 8 7 11 -27 11 -45 0z"/>
<path d="M2460 4040 c0 -5 5 -10 10 -10 6 0 10 5 10 10 0 6 -4 10 -10 10 -5 0
-10 -4 -10 -10z"/>
<path d="M2196 3913 c-11 -11 -6 -23 9 -23 8 0 15 4 15 9 0 13 -16 22 -24 14z"/>
<path d="M2877 3885 c-4 -8 -2 -17 3 -20 6 -4 10 3 10 14 0 25 -6 27 -13 6z"/>
<path d="M2420 3690 c-8 -5 -12 -11 -10 -14 3 -2 14 2 24 10 22 15 10 19 -14
4z"/>
<path d="M2488 3616 c-23 -17 -23 -22 2 -22 10 0 17 2 15 5 -3 2 0 10 6 18 15
17 -1 16 -23 -1z"/>
<path d="M1620 3350 c0 -59 0 -60 28 -60 37 0 52 17 52 56 0 52 -9 64 -46 64
l-34 0 0 -60z"/>
<path d="M1620 3210 l0 -71 38 7 c51 9 52 10 52 49 0 62 -15 85 -55 85 l-35 0
0 -70z"/>
<path d="M1922 3293 c-5 -16 -13 -36 -17 -45 -6 -16 -1 -18 35 -18 23 0 40 3
38 8 -2 4 -10 24 -18 45 -17 44 -25 46 -38 10z"/>
<path d="M2240 3354 l0 -55 38 3 37 3 3 53 3 52 -40 0 -41 0 0 -56z"/>
<path d="M2340 3370 c0 -5 5 -10 10 -10 6 0 10 5 10 10 0 6 -4 10 -10 10 -5 0
-10 -4 -10 -10z"/>
<path d="M2335 3200 c-3 -5 1 -10 10 -10 9 0 13 5 10 10 -3 6 -8 10 -10 10 -2
0 -7 -4 -10 -10z"/>
<path d="M2570 3400 c0 -5 -7 -10 -15 -10 -8 0 -15 -4 -15 -10 0 -5 7 -10 15
-10 11 0 15 -11 15 -40 0 -36 3 -40 24 -40 45 0 70 52 50 104 -7 18 -74 23
-74 6z"/>
<path d="M2570 3209 l0 -71 38 7 c20 4 39 9 41 11 7 7 6 88 -1 107 -5 12 -18
17 -43 17 l-35 0 0 -71z"/>
<path d="M3222 3350 c0 -14 2 -19 5 -12 2 6 2 18 0 25 -3 6 -5 1 -5 -13z"/>
<path d="M3611 3214 c0 -11 3 -14 6 -6 3 7 2 16 -1 19 -3 4 -6 -2 -5 -13z"/>
<path d="M3770 3400 c0 -6 7 -10 15 -10 8 0 15 2 15 4 0 2 -7 6 -15 10 -8 3
-15 1 -15 -4z"/>
<path d="M4077 3213 c-4 -3 -7 -11 -7 -17 0 -6 5 -5 12 2 6 6 9 14 7 17 -3 3
-9 2 -12 -2z"/>
<path d="M3587 3346 c-4 -10 -1 -13 8 -9 8 3 12 9 9 14 -7 12 -11 11 -17 -5z"/>
<path d="M4800 3060 c0 -5 5 -10 11 -10 5 0 7 5 4 10 -3 6 -8 10 -11 10 -2 0
-4 -4 -4 -10z"/>
<path d="M4598 2933 c6 -2 18 -2 25 0 6 3 1 5 -13 5 -14 0 -19 -2 -12 -5z"/>
<path d="M4633 2893 c9 -2 23 -2 30 0 6 3 -1 5 -18 5 -16 0 -22 -2 -12 -5z"/>
<path d="M890 3045 c0 -8 5 -15 11 -15 5 0 8 4 5 9 -4 5 0 12 6 14 8 3 6 6 -4
6 -10 1 -18 -6 -18 -14z"/>
<path d="M959 2984 c-9 -56 -15 -74 -25 -70 -8 3 -14 1 -14 -4 0 -6 4 -10 9
-10 5 0 11 -8 14 -19 3 -12 17 -20 47 -25 63 -10 85 8 97 82 12 80 5 97 -51
111 -24 6 -49 11 -55 11 -5 0 -15 -34 -22 -76z"/>
<path d="M885 2810 c-3 -5 -1 -10 4 -10 6 0 11 5 11 10 0 6 -2 10 -4 10 -3 0
-8 -4 -11 -10z"/>
<path d="M1110 2729 c0 -5 5 -7 10 -4 6 3 10 8 10 11 0 2 -4 4 -10 4 -5 0 -10
-5 -10 -11z"/>
<path d="M1120 2670 c-13 -8 -12 -10 3 -10 9 0 17 5 17 10 0 12 -1 12 -20 0z"/>
<path d="M4390 3000 c-11 -7 -5 -8 20 -4 43 8 51 14 19 14 -13 0 -31 -5 -39
-10z"/>
<path d="M4375 2960 c3 -5 14 -10 23 -10 15 0 15 2 2 10 -20 13 -33 13 -25 0z"/>
<path d="M1400 2911 c0 -5 -8 -12 -17 -14 -15 -4 -15 -5 -2 -6 9 0 22 6 29 14
9 10 9 15 1 15 -6 0 -11 -4 -11 -9z"/>
<path d="M1418 2883 c7 -3 16 -2 19 1 4 3 -2 6 -13 5 -11 0 -14 -3 -6 -6z"/>
<path d="M1623 2864 c0 -8 6 -14 14 -14 7 0 13 4 13 9 0 5 -6 11 -13 14 -8 3
-14 -1 -14 -9z"/>
<path d="M1390 2779 c0 -5 5 -7 10 -4 6 3 10 8 10 11 0 2 -4 4 -10 4 -5 0 -10
-5 -10 -11z"/>
<path d="M4175 2933 c-7 -31 6 -43 53 -43 25 0 32 4 32 20 0 11 -7 20 -15 20
-8 0 -15 -7 -15 -15 0 -8 -8 -15 -17 -15 -12 0 -14 3 -6 8 8 5 6 13 -7 29
l-18 23 -7 -27z"/>
<path d="M3938 2823 c7 -3 16 -2 19 1 4 3 -2 6 -13 5 -11 0 -14 -3 -6 -6z"/>
<path d="M4210 2674 c0 -13 18 -39 24 -34 2 3 -2 14 -10 24 -8 11 -14 16 -14
10z"/>
<path d="M4195 2590 c3 -5 8 -10 11 -10 2 0 4 5 4 10 0 6 -5 10 -11 10 -5 0
-7 -4 -4 -10z"/>
<path d="M3515 2890 c-3 -5 -1 -10 4 -10 6 0 11 5 11 10 0 6 -2 10 -4 10 -3 0
-8 -4 -11 -10z"/>
<path d="M3478 2573 c7 -3 16 -2 19 1 4 3 -2 6 -13 5 -11 0 -14 -3 -6 -6z"/>
<path d="M3485 2551 c-5 -9 0 -20 16 -32 31 -24 49 -25 22 -1 -11 9 -22 24
-25 32 -3 11 -6 12 -13 1z"/>
<path d="M1855 2840 c-3 -5 1 -10 10 -10 9 0 13 5 10 10 -3 6 -8 10 -10 10 -2
0 -7 -4 -10 -10z"/>
<path d="M1800 2720 c0 -5 6 -10 13 -10 8 0 7 -4 -3 -11 -12 -9 -12 -10 3 -5
10 3 26 6 35 6 11 0 6 6 -12 15 -34 18 -36 18 -36 5z"/>
<path d="M2180 2710 c-13 -8 -12 -10 3 -10 9 0 17 5 17 10 0 12 -1 12 -20 0z"/>
<path d="M3175 2840 c-3 -5 -1 -10 4 -10 6 0 11 5 11 10 0 6 -2 10 -4 10 -3 0
-8 -4 -11 -10z"/>
<path d="M3220 2758 c0 -11 12 -10 30 2 12 7 10 9 -8 7 -12 0 -22 -5 -22 -9z"/>
<path d="M3250 2735 c0 -8 5 -15 10 -15 6 0 10 7 10 15 0 8 -4 15 -10 15 -5 0
-10 -7 -10 -15z"/>
<path d="M3230 2629 c0 -5 5 -7 10 -4 6 3 10 8 10 11 0 2 -4 4 -10 4 -5 0 -10
-5 -10 -11z"/>
<path d="M2938 2513 c7 -3 16 -2 19 1 4 3 -2 6 -13 5 -11 0 -14 -3 -6 -6z"/>
<path d="M2968 2453 c7 -3 16 -2 19 1 4 3 -2 6 -13 5 -11 0 -14 -3 -6 -6z"/>
<path d="M2565 2890 c28 -12 47 -12 40 0 -3 6 -18 10 -33 9 -24 0 -25 -1 -7
-9z"/>
<path d="M2558 2843 c6 -2 18 -2 25 0 6 3 1 5 -13 5 -14 0 -19 -2 -12 -5z"/>
<path d="M2545 2789 c-10 -15 3 -25 16 -12 7 7 7 13 1 17 -6 3 -14 1 -17 -5z"/>
<path d="M2218 2773 c6 -2 18 -2 25 0 6 3 1 5 -13 5 -14 0 -19 -2 -12 -5z"/>
<path d="M2595 2710 c-3 -5 -1 -10 4 -10 6 0 11 5 11 10 0 6 -2 10 -4 10 -3 0
-8 -4 -11 -10z"/>
<path d="M2515 2500 c3 -5 13 -10 21 -10 8 0 12 5 9 10 -3 6 -13 10 -21 10 -8
0 -12 -4 -9 -10z"/>
<path d="M2396 2313 c-6 -14 -5 -15 5 -6 7 7 10 15 7 18 -3 3 -9 -2 -12 -12z"/>
<path d="M2485 2310 c3 -5 8 -10 11 -10 2 0 4 5 4 10 0 6 -5 10 -11 10 -5 0
-7 -4 -4 -10z"/>
<path d="M2280 2279 c0 -5 5 -7 10 -4 6 3 10 8 10 11 0 2 -4 4 -10 4 -5 0 -10
-5 -10 -11z"/>
<path d="M2420 2260 c-9 -6 -10 -10 -3 -10 6 0 15 5 18 10 8 12 4 12 -15 0z"/>
<path d="M2795 2250 c-3 -5 -1 -10 4 -10 6 0 11 5 11 10 0 6 -2 10 -4 10 -3 0
-8 -4 -11 -10z"/>
<path d="M2756 2241 c-12 -5 -15 -10 -9 -14 6 -4 16 0 23 8 14 17 13 17 -14 6z"/>
<path d="M2694 2226 c-3 -8 -4 -23 -2 -33 3 -11 6 -6 9 15 6 34 2 42 -7 18z"/>
<path d="M2165 2220 c3 -5 10 -10 16 -10 5 0 9 5 9 10 0 6 -7 10 -16 10 -8 0
-12 -4 -9 -10z"/>
<path d="M2615 2210 c-10 -11 -26 -20 -37 -20 -10 0 -18 -4 -18 -8 0 -19 56 1
67 24 14 29 11 30 -12 4z"/>
<path d="M2490 2200 c-9 -6 -10 -10 -3 -10 6 0 15 5 18 10 8 12 4 12 -15 0z"/>
<path d="M2630 2181 c0 -4 11 -6 25 -3 14 2 25 6 25 8 0 2 -11 4 -25 4 -14 0
-25 -4 -25 -9z"/>
<path d="M2362 2167 c-21 -12 -21 -13 14 -13 20 0 32 2 25 4 -6 2 -9 8 -5 13
7 12 -7 11 -34 -4z"/>
<path d="M1975 2160 c-4 -6 -3 -16 3 -22 13 -13 23 4 13 21 -7 10 -10 10 -16
1z"/>
<path d="M2075 2120 c3 -5 14 -10 23 -10 15 0 15 2 2 10 -20 13 -33 13 -25 0z"/>
<path d="M2340 2120 c0 -5 5 -10 10 -10 6 0 10 5 10 10 0 6 -4 10 -10 10 -5 0
-10 -4 -10 -10z"/>
<path d="M2622 2100 c0 -14 2 -19 5 -12 2 6 2 18 0 25 -3 6 -5 1 -5 -13z"/>
<path d="M2495 2079 c-4 -6 -5 -12 -2 -15 2 -3 7 2 10 11 7 17 1 20 -8 4z"/>
<path d="M2343 2013 c-18 -7 -16 -23 2 -23 8 0 15 7 15 15 0 8 -1 15 -2 14 -2
0 -9 -3 -15 -6z"/>
<path d="M2118 2003 c6 -2 18 -2 25 0 6 3 1 5 -13 5 -14 0 -19 -2 -12 -5z"/>
<path d="M2375 2000 c3 -5 10 -10 16 -10 5 0 9 5 9 10 0 6 -7 10 -16 10 -8 0
-12 -4 -9 -10z"/>
<path d="M2060 1970 c0 -5 7 -10 15 -10 8 0 15 5 15 10 0 6 -7 10 -15 10 -8 0
-15 -4 -15 -10z"/>
<path d="M2135 1940 c-16 -7 -17 -9 -3 -9 9 -1 20 4 23 9 7 11 7 11 -20 0z"/>
<path d="M3246 2296 c3 -9 11 -16 16 -16 13 0 5 23 -10 28 -7 2 -10 -2 -6 -12z"/>
<path d="M3140 2285 c0 -9 70 -69 96 -83 13 -7 24 -19 24 -26 0 -9 7 -12 20
-9 17 5 12 11 -32 42 -29 20 -53 44 -53 53 0 9 -4 20 -9 25 -5 4 -6 3 -2 -4 4
-7 2 -13 -3 -13 -6 0 -11 5 -11 10 0 6 -7 10 -15 10 -8 0 -15 -2 -15 -5z"/>
<path d="M2954 2238 c-4 -7 -4 -10 1 -6 4 4 16 -3 25 -15 10 -12 20 -20 22
-17 2 3 -6 15 -18 28 -17 18 -24 20 -30 10z"/>
<path d="M3258 2243 c12 -2 20 -9 17 -14 -9 -13 7 -11 27 5 15 11 12 13 -25
13 -23 0 -32 -2 -19 -4z"/>
<path d="M2998 2233 c7 -3 16 -2 19 1 4 3 -2 6 -13 5 -11 0 -14 -3 -6 -6z"/>
<path d="M3031 2184 c0 -11 3 -14 6 -6 3 7 2 16 -1 19 -3 4 -6 -2 -5 -13z"/>
<path d="M3203 2173 c9 -2 25 -2 35 0 9 3 1 5 -18 5 -19 0 -27 -2 -17 -5z"/>
<path d="M3591 2173 c-1 -7 -9 -13 -18 -14 -13 0 -11 -3 6 -10 29 -11 31 -10
20 16 -4 11 -8 14 -8 8z"/>
<path d="M3193 2141 c1 -12 7 -21 13 -21 15 0 11 33 -4 38 -6 2 -10 -6 -9 -17z"/>
<path d="M3040 2147 c0 -4 9 -16 19 -26 18 -18 20 -18 26 -3 3 9 3 13 -1 9 -4
-4 -16 0 -26 10 -10 9 -18 13 -18 10z"/>
<path d="M3685 2090 c-3 -5 -1 -10 4 -10 6 0 11 5 11 10 0 6 -2 10 -4 10 -3 0
-8 -4 -11 -10z"/>
<path d="M3584 2025 c-9 -19 -9 -25 4 -30 8 -3 17 -3 20 0 3 3 -1 5 -8 5 -10
0 -11 3 -4 10 7 7 19 7 35 1 20 -8 21 -10 5 -10 -11 -1 -17 -3 -14 -6 8 -8 68
7 68 17 0 5 -4 7 -9 4 -10 -6 -73 13 -81 25 -3 4 -10 -3 -16 -16z"/>
<path d="M3463 2015 c0 -8 4 -15 8 -15 4 0 9 7 13 15 3 9 0 15 -8 15 -7 0 -13
-7 -13 -15z"/>
<path d="M3195 2000 c3 -5 10 -10 16 -10 5 0 9 5 9 10 0 6 -7 10 -16 10 -8 0
-12 -4 -9 -10z"/>
<path d="M3353 1993 c9 -2 23 -2 30 0 6 3 -1 5 -18 5 -16 0 -22 -2 -12 -5z"/>
<path d="M3501 1990 c-9 -5 -4 -7 13 -7 29 0 32 2 13 10 -8 3 -20 2 -26 -3z"/>
</g>
</svg>
